<?xml version="1.0" encoding="UTF-8"?>
<svg width="32" height="32" viewBox="0 0 32 32" fill="none" xmlns="http://www.w3.org/2000/svg">
  <circle cx="16" cy="16" r="14" fill="#FB7185"/>
  <path d="M16 8C17.1046 8 18 7.10457 18 6C18 4.89543 17.1046 4 16 4C14.8954 4 14 4.89543 14 6C14 7.10457 14.8954 8 16 8Z" fill="white"/>
  <path d="M20 14C20 17.3137 18.2091 20 16 20C13.7909 20 12 17.3137 12 14C12 10.6863 13.7909 8 16 8C18.2091 8 20 10.6863 20 14Z" fill="white"/>
  <path d="M16 28C17.1046 28 18 27.1046 18 26C18 24.8954 17.1046 24 16 24C14.8954 24 14 24.8954 14 26C14 27.1046 14.8954 28 16 28Z" fill="white"/>
</svg>
